<?xml version="1.0" encoding="UTF-8" standalone="no"?>
<svg
   xmlns:dc="http://purl.org/dc/elements/1.1/"
   xmlns:cc="http://creativecommons.org/ns#"
   xmlns:rdf="http://www.w3.org/1999/02/22-rdf-syntax-ns#"
   xmlns:svg="http://www.w3.org/2000/svg"
   xmlns="http://www.w3.org/2000/svg"
   xmlns:sodipodi="http://sodipodi.sourceforge.net/DTD/sodipodi-0.dtd"
   xmlns:inkscape="http://www.inkscape.org/namespaces/inkscape"
   version="1.1"
   viewBox="0 -410 1796.533 1755.4447"
   id="svg6"
   sodipodi:docname="arxiv_academicons.svg"
   width="1796.533"
   height="1755.4447"
   inkscape:version="0.92.2 2405546, 2018-03-11">
  <metadata
     id="metadata12">
    <rdf:RDF>
      <cc:Work
         rdf:about="">
        <dc:format>image/svg+xml</dc:format>
        <dc:type
           rdf:resource="http://purl.org/dc/dcmitype/StillImage" />
        <dc:title></dc:title>
      </cc:Work>
    </rdf:RDF>
  </metadata>
  <defs
     id="defs10" />
  <sodipodi:namedview
     pagecolor="#ffffff"
     bordercolor="#666666"
     borderopacity="1"
     objecttolerance="10"
     gridtolerance="10"
     guidetolerance="10"
     inkscape:pageopacity="0"
     inkscape:pageshadow="2"
     inkscape:window-width="1600"
     inkscape:window-height="845"
     id="namedview8"
     showgrid="false"
     fit-margin-top="0"
     fit-margin-left="0"
     fit-margin-right="0"
     fit-margin-bottom="0"
     inkscape:zoom="0.11523438"
     inkscape:cx="-1089.0083"
     inkscape:cy="1170.3094"
     inkscape:window-x="0"
     inkscape:window-y="27"
     inkscape:window-maximized="1"
     inkscape:current-layer="svg6" />
  <g
     transform="matrix(1,0,0,-1,-125.75404,1199.1352)"
     id="g4">
    <path
       d="m 894.142,947.471 c 0,-71.104 -26.83,-128.746 -59.926,-128.746 -33.096,0 -59.926,57.642 -59.926,128.746 0,71.104 26.83,128.746 59.926,128.746 33.096,0 59.926,-57.642 59.926,-128.746 z m 379.638,0 c 0,-71.104 -26.798,-128.746 -59.852,-128.746 -33.054,0 -59.852,57.642 -59.852,128.746 0,71.104 26.798,128.746 59.852,128.746 33.054,0 59.852,-57.642 59.852,-128.746 z m 100.44,-280.97 h -63.43 c 0,-33.36 12.354,-63.926 32.432,-88.356 -21.578,-54.14 -150.792,-121.856 -319.218,-121.856 -168.36,0 -297.64,67.716 -319.218,121.856 19.998,24.43 32.504,54.996 32.504,88.356 h -63.502 c 0,-44.712 -39.57,-81.072 -88.144,-81.072 v -63.502 c 24.568,0 47.572,6.218 68.14,16.216 46.578,-78.212 190.288,-145.356 370.22,-145.356 179.998,0 323.642,67.146 370.212,145.356 20.576,-9.998 43.572,-16.216 68.148,-16.216 v 63.502 c -48.574,0 -88.144,36.36 -88.144,81.072 z m 536.14,-501.57 c -19.002,35.284 -35.43,42.358 -66.29,51.924 -26.5,8.002 -73.07,4.286 -113.21,-11.352 -9.142,-3.576 -17.43,-9.362 -26.148,-14.072 -25.994,-13.926 -41.64,-11.212 -61.426,9.926 -11.36,12.214 -47.002,44.434 -95.926,90.858 99.854,118.858 160.146,271.858 160.146,439.216 0,167.286 -60.284,320.358 -160.146,439.216 48.926,46.358 84.494,78.496 95.854,90.778 19.786,21.146 35.43,23.86 61.432,9.86 8.712,-4.644 16.998,-10.43 26.142,-14 40.068,-15.646 86.71,-19.36 113.21,-11.286 30.786,9.494 47.286,16.566 66.29,51.85 11.644,27.216 15.93,51.214 7.432,81.716 -8.506,30.362 -43.286,49.862 -87.004,57.432 -35.072,6.144 -20.64,11.85 -21.284,43.286 -0.856,47.14 -17.788,84.202 -58.002,109.356 -30.428,18.856 -65.288,20.356 -98.998,19.142 -46.358,-1.5 -94.142,-24.43 -105.86,-51.998 -13.926,-32.57 1.726,-53.57 14.504,-76.858 16.502,-29.784 8.426,-59.64 -12.932,-84.502 -23.07,-27.07 -79.784,-85.284 -112.07,-119.64 -114.57,86.858 -257.076,139.06 -412,139.06 -155.004,0 -297.502,-52.202 -412.146,-139.14 -32.286,34.442 -89,92.658 -112.07,119.728 -21.358,24.862 -29.36,54.718 -12.932,84.576 12.786,23.216 28.43,44.214 14.57,76.786 -11.784,27.64 -59.568,50.498 -105.926,51.998 -33.712,1.288 -68.644,-0.212 -99.072,-19.142 -40.14,-25.074 -57.14,-62.216 -58.002,-109.282 -0.57,-31.502 13.86,-37.216 -21.284,-43.36 -43.71,-7.504 -78.424,-27.07 -86.996,-57.358 -8.5,-30.5 -4.214,-54.572 7.432,-81.716 18.996,-35.284 35.496,-42.43 66.282,-51.924 26.5,-8.074 73.142,-4.286 113.284,11.286 9.142,3.642 17.43,9.428 26.142,14 26.002,14 41.574,11.352 61.426,-9.786 11.424,-12.362 47.002,-44.5 95.854,-90.858 -99.848,-118.858 -160.132,-271.93 -160.132,-439.216 0,-167.358 60.358,-320.498 160.146,-439.288 -48.86,-46.35 -84.428,-78.57 -95.854,-90.784 -19.858,-21.138 -35.43,-23.852 -61.426,-9.926 -8.712,4.718 -16.998,10.504 -26.142,14.072 -40.14,15.638 -86.784,19.354 -113.284,11.352 -30.786,-9.568 -47.286,-16.64 -66.282,-51.924 -11.644,-27.216 -15.93,-51.222 -7.432,-81.716 8.572,-30.354 43.286,-49.854 87.004,-57.432 35.146,-6.136 20.714,-11.856 21.284,-43.286 0.856,-47.14 17.854,-84.21 58.002,-109.356 30.428,-18.856 65.36,-20.356 99.072,-19.142 46.358,1.426 94.142,24.43 105.926,51.998 13.86,32.504 -1.784,53.642 -14.57,76.858 -16.428,29.718 -8.426,59.574 12.932,84.502 23.07,26.998 79.784,85.284 112.07,119.712 114.644,-86.93 257.142,-139.14 412.146,-139.14 154.998,0 297.428,52.21 412,139.14 32.286,-34.428 89.074,-92.716 112.142,-119.712 21.358,-24.928 29.36,-54.784 12.932,-84.502 -12.858,-23.216 -28.43,-44.354 -14.578,-76.858 11.798,-27.574 59.574,-50.57 105.932,-51.998 33.712,-1.214 68.644,0.286 99.08,19.142 40.14,25.146 57.066,62.216 57.93,109.356 0.636,31.43 -13.788,37.15 21.358,43.286 43.638,7.578 78.424,27.078 86.922,57.432 8.544,30.5 4.184,54.498 -7.454,81.716 z M 1024.07,90.215 c -353.572,0 -641.214,287.642 -641.214,641.214 0,353.5 287.642,641.142 641.214,641.142 353.426,0 641.142,-287.642 641.142,-641.142 0,-353.572 -287.714,-641.214 -641.142,-641.214 z"
       id="path2"
       inkscape:connector-curvature="0"
       style="fill:currentColor" />
  </g>
</svg>
