<?xml version="1.0" encoding="UTF-8" standalone="no"?>
<svg
   xmlns:dc="http://purl.org/dc/elements/1.1/"
   xmlns:cc="http://creativecommons.org/ns#"
   xmlns:rdf="http://www.w3.org/1999/02/22-rdf-syntax-ns#"
   xmlns:svg="http://www.w3.org/2000/svg"
   xmlns="http://www.w3.org/2000/svg"
   xmlns:sodipodi="http://sodipodi.sourceforge.net/DTD/sodipodi-0.dtd"
   xmlns:inkscape="http://www.inkscape.org/namespaces/inkscape"
   version="1.1"
   viewBox="0 -410 1755.428 1755.428"
   id="svg6"
   sodipodi:docname="doi_academicons.svg"
   width="1755.428"
   height="1755.428"
   inkscape:version="0.92.2 2405546, 2018-03-11">
  <metadata
     id="metadata12">
    <rdf:RDF>
      <cc:Work
         rdf:about="">
        <dc:format>image/svg+xml</dc:format>
        <dc:type
           rdf:resource="http://purl.org/dc/dcmitype/StillImage" />
        <dc:title></dc:title>
      </cc:Work>
    </rdf:RDF>
  </metadata>
  <defs
     id="defs10" />
  <sodipodi:namedview
     pagecolor="#ffffff"
     bordercolor="#666666"
     borderopacity="1"
     objecttolerance="10"
     gridtolerance="10"
     guidetolerance="10"
     inkscape:pageopacity="0"
     inkscape:pageshadow="2"
     inkscape:window-width="1600"
     inkscape:window-height="845"
     id="namedview8"
     showgrid="false"
     fit-margin-top="0"
     fit-margin-left="0"
     fit-margin-right="0"
     fit-margin-bottom="0"
     inkscape:zoom="0.11523438"
     inkscape:cx="-111.57414"
     inkscape:cy="1170.288"
     inkscape:window-x="0"
     inkscape:window-y="27"
     inkscape:window-maximized="1"
     inkscape:current-layer="svg6" />
  <g
     transform="matrix(1,0,0,-1,-146.286,1199.14)"
     id="g4">
    <path
       d="m 527.074,849.965 c -34.422,0 -66.304,-25.036 -88.43,-51.024 -17.912,-21.072 -26.866,-53.556 -26.866,-80.604 0,-27.04 10.16,-57.118 28.072,-78.19 21.774,-25.988 45.224,-43.798 79.996,-43.798 31.262,0 68.44,13.122 89.856,34.546 21.774,21.424 39.884,57.396 39.884,88.65 0,30.902 -8.478,67.906 -30.252,89.33 -21.774,21.782 -61.36,41.092 -92.262,41.092 z m 618.096,-8.492 c -35.818,0 -64.972,-14.088 -87.45,-42.248 -18.256,-22.602 -27.392,-48.354 -27.392,-77.254 0,-29.272 9.136,-55.208 27.392,-77.81 22.476,-28.16 51.632,-42.248 87.45,-42.248 31.964,0 58.998,11.506 81.122,34.48 22.134,23.348 33.192,51.858 33.192,85.578 0,33.346 -11.242,61.498 -33.718,84.472 -22.118,23.34 -48.992,35.028 -80.596,35.028 z M 1024,1609.14 c -484.746,0 -877.714,-392.968 -877.714,-877.714 0,-484.746 392.968,-877.714 877.714,-877.714 484.746,0 877.714,392.968 877.714,877.714 0,484.746 -392.968,877.714 -877.714,877.714 z M 815.806,463.193 H 653.232 v 66.18 c -16.508,-20.722 -55.348,-41.846 -72.2,-51.324 -29.498,-16.502 -69.558,-27.254 -107.14,-27.254 -60.76,0 -114.842,19.2 -162.252,60.986 -56.546,49.868 -83.112,126.112 -83.112,208.296 0,83.588 28.972,150.316 86.922,200.184 46.006,39.688 102.268,71.454 161.974,71.454 34.764,0 77.648,-3.124 108.2,-17.868 17.562,-8.426 48.998,-28.262 67.614,-47.58 v 348.614 H 815.812 V 463.193 Z m 556.414,74.818 c -54.082,-62.244 -129.77,-93.374 -227.05,-93.374 -97.632,0 -173.488,31.13 -227.584,93.374 -44.596,51.134 -66.904,113.934 -66.904,188.408 0,67.064 22.476,126.53 67.43,178.402 54.432,62.618 131.876,93.93 232.316,93.93 92.364,0 166.114,-31.306 221.258,-93.93 44.954,-51.134 67.43,-112.076 67.43,-182.85 0.01,-71.512 -22.294,-132.828 -66.896,-183.962 z m 137.21,705.069 c 18.966,18.966 41.97,28.446 69.01,28.446 27.04,0 50.044,-9.48 69.01,-28.446 18.966,-18.614 28.446,-41.442 28.446,-68.484 0,-27.392 -9.48,-50.57 -28.446,-69.536 -18.614,-18.614 -41.618,-27.918 -69.01,-27.918 -27.048,0 -50.052,9.48 -69.01,28.446 -18.614,18.966 -27.918,41.97 -27.918,69.01 -0.01,27.04 9.304,49.868 27.918,68.484 z m 155.4,-779.479 h -172.792 v 516.132 h 172.792 z"
       id="path2"
       inkscape:connector-curvature="0"
       style="fill:currentColor" />
  </g>
</svg>
